<mxfile host="app.diagrams.net" agent="Mozilla/5.0 (Macintosh; Intel Mac OS X 10_15_7) AppleWebKit/605.1.15 (KHTML, like Gecko) Version/18.0 Safari/605.1.15" version="24.7.17">
  <diagram name="Page-1" id="V-eYu0oK5F4vT5PYGH0F">
    <mxGraphModel dx="954" dy="540" grid="1" gridSize="10" guides="1" tooltips="1" connect="1" arrows="1" fold="1" page="1" pageScale="1" pageWidth="850" pageHeight="1100" math="0" shadow="0">
      <root>
        <mxCell id="0" />
        <mxCell id="1" parent="0" />
        <mxCell id="IxXNVthAD3e1qXDeU3dy-2" value="Standard" style="ellipse;whiteSpace=wrap;html=1;" vertex="1" parent="1">
          <mxGeometry x="270" y="50" width="150" height="20" as="geometry" />
        </mxCell>
        <mxCell id="IxXNVthAD3e1qXDeU3dy-8" style="edgeStyle=orthogonalEdgeStyle;rounded=0;orthogonalLoop=1;jettySize=auto;html=1;exitX=0.5;exitY=0;exitDx=0;exitDy=0;entryX=0.5;entryY=1;entryDx=0;entryDy=0;" edge="1" parent="1" source="IxXNVthAD3e1qXDeU3dy-4" target="IxXNVthAD3e1qXDeU3dy-2">
          <mxGeometry relative="1" as="geometry" />
        </mxCell>
        <mxCell id="IxXNVthAD3e1qXDeU3dy-4" value="carDataKernel" style="ellipse;whiteSpace=wrap;html=1;" vertex="1" parent="1">
          <mxGeometry x="270" y="100" width="150" height="20" as="geometry" />
        </mxCell>
        <mxCell id="IxXNVthAD3e1qXDeU3dy-9" style="edgeStyle=orthogonalEdgeStyle;rounded=0;orthogonalLoop=1;jettySize=auto;html=1;exitX=0.5;exitY=0;exitDx=0;exitDy=0;entryX=0.5;entryY=1;entryDx=0;entryDy=0;" edge="1" parent="1" source="IxXNVthAD3e1qXDeU3dy-5" target="IxXNVthAD3e1qXDeU3dy-4">
          <mxGeometry relative="1" as="geometry" />
        </mxCell>
        <mxCell id="IxXNVthAD3e1qXDeU3dy-5" value="carData" style="ellipse;whiteSpace=wrap;html=1;" vertex="1" parent="1">
          <mxGeometry x="270" y="150" width="150" height="20" as="geometry" />
        </mxCell>
        <mxCell id="IxXNVthAD3e1qXDeU3dy-11" style="edgeStyle=orthogonalEdgeStyle;rounded=0;orthogonalLoop=1;jettySize=auto;html=1;exitX=0.5;exitY=0;exitDx=0;exitDy=0;entryX=0.5;entryY=1;entryDx=0;entryDy=0;" edge="1" parent="1" source="IxXNVthAD3e1qXDeU3dy-10" target="IxXNVthAD3e1qXDeU3dy-5">
          <mxGeometry relative="1" as="geometry" />
        </mxCell>
        <mxCell id="IxXNVthAD3e1qXDeU3dy-10" value="carDataSecondary" style="rounded=1;whiteSpace=wrap;html=1;" vertex="1" parent="1">
          <mxGeometry x="280" y="200" width="120" height="20" as="geometry" />
        </mxCell>
        <mxCell id="IxXNVthAD3e1qXDeU3dy-14" style="edgeStyle=orthogonalEdgeStyle;rounded=0;orthogonalLoop=1;jettySize=auto;html=1;exitX=0.5;exitY=0;exitDx=0;exitDy=0;entryX=0.5;entryY=1;entryDx=0;entryDy=0;" edge="1" parent="1" source="IxXNVthAD3e1qXDeU3dy-13" target="IxXNVthAD3e1qXDeU3dy-10">
          <mxGeometry relative="1" as="geometry" />
        </mxCell>
        <mxCell id="IxXNVthAD3e1qXDeU3dy-13" value="carData1L" style="rounded=0;whiteSpace=wrap;html=1;" vertex="1" parent="1">
          <mxGeometry x="290" y="250" width="110" height="20" as="geometry" />
        </mxCell>
      </root>
    </mxGraphModel>
  </diagram>
</mxfile>
